<?xml version="1.0" encoding="utf-8"?>
<!-- Generator: Adobe Illustrator 25.2.3, SVG Export Plug-In . SVG Version: 6.00 Build 0)  -->
<svg version="1.1" id="Layer_1" xmlns="http://www.w3.org/2000/svg" xmlns:xlink="http://www.w3.org/1999/xlink" x="0px" y="0px"
	 viewBox="0 0 180 180" style="enable-background:new 0 0 180 180;" xml:space="preserve">
<style type="text/css">
	.st0{fill:none;}
</style>
<g>
	<path class="st0" d="M0,14h152v152H0V14z"/>
	<path d="M139.33,26.67l-15.83,8.87l-15.83-8.87l8.87,15.83l-8.87,15.83l15.83-8.87l15.83,8.87l-8.87-15.83L139.33,26.67z
		 M91.01,60.17c-2.47-2.47-6.46-2.47-8.93,0L8.17,134.08c-2.47,2.47-2.47,6.46,0,8.93l14.82,14.82c2.47,2.47,6.46,2.47,8.93,0
		l73.85-73.85c2.47-2.47,2.47-6.46,0-8.93C105.77,75.05,91.01,60.17,91.01,60.17z M84.49,94.94L71.06,81.51l15.45-15.45l13.43,13.43
		C99.94,79.49,84.49,94.94,84.49,94.94z"/>
</g>
</svg>
